<svg width="150" height="150" viewBox="0 0 150 150" fill="none" xmlns="http://www.w3.org/2000/svg">
<g clip-path="url(#clip0_45_5)">
<path d="M75 150C116.421 150 150 116.421 150 75C150 33.5786 116.421 0 75 0C33.5786 0 0 33.5786 0 75C0 116.421 33.5786 150 75 150Z" fill="#4CC764"/>
<path d="M124.909 70.6364C124.909 48.2727 102.545 30 74.7273 30C47.4545 30 24.8182 48.2727 24.8182 70.6364C24.8182 90.8182 42.5454 107.455 66.8182 110.727C68.4545 111 70.6364 111.818 71.1818 113.182C71.7273 114.545 71.4545 116.455 71.4545 117.818C71.4545 117.818 70.9091 121.364 70.6364 122.182C70.3636 123.545 69.5454 127.091 75 124.909C80.4545 122.727 103.909 108 114.273 95.7273C121.636 87.5455 124.909 79.6364 124.909 70.6364Z" fill="white"/>
<path d="M108.273 83.4546C108.818 83.4546 109.364 82.9091 109.364 82.3637V79.0909C109.364 78.5455 108.818 78 108.273 78H98.7273V74.1818H108.273C108.818 74.1818 109.364 73.6364 109.364 73.0909V69.5455C109.364 69 108.818 68.4546 108.273 68.4546H98.7273V64.6364H108.273C108.818 64.6364 109.364 64.0909 109.364 63.5455V60C109.364 59.4546 108.818 58.9091 108.273 58.9091H94.0909C93.5454 58.9091 93 59.4546 93 60V81.8182C93 82.3637 93.5454 82.9091 94.0909 82.9091H108.273V83.4546Z" fill="#4CC764"/>
<path d="M56.4545 83.4546C57 83.4546 57.5454 82.9091 57.5454 82.3637V79.091C57.5454 78.5455 57 78 56.4545 78H46.9091V60.5455C46.9091 60 46.3636 59.4546 45.8182 59.4546H42.2727C41.7273 59.4546 41.1818 60 41.1818 60.5455V82.3637C41.1818 82.9091 41.7273 83.4546 42.2727 83.4546H56.4545Z" fill="#4CC764"/>
<path d="M64.9091 59.7273H61.3636C60.8182 59.7273 60.2727 60.2727 60.2727 60.8182V82.6364C60.2727 83.1818 60.8182 83.7273 61.3636 83.7273H64.9091C65.4545 83.7273 66 83.1818 66 82.6364V60.8182C65.7273 60.2727 65.4545 59.7273 64.9091 59.7273Z" fill="#4CC764"/>
<path d="M88.9091 59.7273H85.3636C84.8182 59.7273 84.2727 60.2727 84.2727 60.8182V73.6364L74.1818 60H70.6363C70.0909 60 69.5454 60.5455 69.5454 61.0909V82.9091C69.5454 83.4546 70.0909 84 70.6363 84H73.6363C74.1818 84 74.7273 83.4546 74.7273 82.9091V69.8182L84.8182 83.4546L85.0909 83.7273H85.3636H88.9091C89.4545 83.7273 90 83.1818 90 82.6364V60.8182C90 60.2727 89.4545 59.7273 88.9091 59.7273Z" fill="#4CC764"/>
</g>
<defs>
<clipPath id="clip0_45_5">
<rect width="150" height="150" fill="white"/>
</clipPath>
</defs>
</svg>
